<svg xmlns="http://www.w3.org/2000/svg" viewBox="0 0 512 512">
  <rect width="512" height="512" rx="118" fill="#183f34"/>
  <path fill="#f4f5ef" d="M254 424c-20 0-36-16-36-36V255c0-76 56-137 128-137 20 0 36 16 36 36 0 20-16 36-36 36-32 0-58 29-58 65v133c0 20-15 36-34 36Z"/>
  <path fill="#55b976" d="M215 278C111 275 96 183 96 144c0-19 16-34 35-34 87 0 143 58 143 147 0 12-3 24-9 34-14-8-31-13-50-13Zm80 44c14-19 34-31 57-34 42-4 72-40 72-83-65 0-117 44-129 108l-7 35Z"/>
  <circle cx="252" cy="163" r="16" fill="#f4f5ef"/>
</svg>
